<svg width="29" height="28" viewBox="0 0 29 28" fill="none" xmlns="http://www.w3.org/2000/svg">
<g filter="url(#filter0_d_134_442)">
<path d="M14.5 0C8.71033 0 4.00003 4.2392 4.00003 9.45C4.00003 11.2714 4.57613 13.0357 5.66883 14.5614C5.46198 16.8493 4.90758 18.5479 4.10258 19.3525C3.99618 19.459 3.96958 19.6217 4.03678 19.7561C4.09628 19.8762 4.21878 19.95 4.35003 19.95C4.36613 19.95 4.38223 19.9489 4.39868 19.9465C4.54043 19.9265 7.83323 19.4527 10.215 18.0779C11.5674 18.6235 13.008 18.9 14.5 18.9C20.2897 18.9 25 14.6608 25 9.45C25 4.2392 20.2897 0 14.5 0ZM9.60003 10.85C8.82793 10.85 8.20003 10.2221 8.20003 9.45C8.20003 8.6779 8.82793 8.05 9.60003 8.05C10.3721 8.05 11 8.6779 11 9.45C11 10.2221 10.3721 10.85 9.60003 10.85ZM14.5 10.85C13.7279 10.85 13.1 10.2221 13.1 9.45C13.1 8.6779 13.7279 8.05 14.5 8.05C15.2721 8.05 15.9 8.6779 15.9 9.45C15.9 10.2221 15.2721 10.85 14.5 10.85ZM19.4 10.85C18.6279 10.85 18 10.2221 18 9.45C18 8.6779 18.6279 8.05 19.4 8.05C20.1721 8.05 20.8 8.6779 20.8 9.45C20.8 10.2221 20.1721 10.85 19.4 10.85Z" fill="#858EA9"/>
</g>
<defs>
<filter id="filter0_d_134_442" x="0" y="0" width="29" height="27.95" filterUnits="userSpaceOnUse" color-interpolation-filters="sRGB">
<feFlood flood-opacity="0" result="BackgroundImageFix"/>
<feColorMatrix in="SourceAlpha" type="matrix" values="0 0 0 0 0 0 0 0 0 0 0 0 0 0 0 0 0 0 127 0" result="hardAlpha"/>
<feOffset dy="4"/>
<feGaussianBlur stdDeviation="2"/>
<feComposite in2="hardAlpha" operator="out"/>
<feColorMatrix type="matrix" values="0 0 0 0 0 0 0 0 0 0 0 0 0 0 0 0 0 0 0.25 0"/>
<feBlend mode="normal" in2="BackgroundImageFix" result="effect1_dropShadow_134_442"/>
<feBlend mode="normal" in="SourceGraphic" in2="effect1_dropShadow_134_442" result="shape"/>
</filter>
</defs>
</svg>
