<svg width="30" height="30" viewBox="0 0 30 30" fill="none" xmlns="http://www.w3.org/2000/svg">
<circle cx="15" cy="15" r="15" fill="#FF0000"/>
<path d="M16.117 15.0001L21.0842 10.0327C21.3928 9.72435 21.3928 9.22403 21.0842 8.91567C20.7756 8.60705 20.2758 8.60705 19.9672 8.91567L15 13.8831L10.0325 8.91567C9.72392 8.60705 9.22415 8.60705 8.91554 8.91567C8.60693 9.22403 8.60693 9.72435 8.91554 10.0327L13.883 15.0001L8.91554 19.9675C8.60693 20.2759 8.60693 20.7762 8.91554 21.0846C9.06984 21.2386 9.27207 21.3158 9.47403 21.3158C9.676 21.3158 9.87822 21.2386 10.0325 21.0843L15 16.1169L19.9672 21.0843C20.1215 21.2386 20.3237 21.3158 20.5257 21.3158C20.7277 21.3158 20.9299 21.2386 21.0842 21.0843C21.3928 20.776 21.3928 20.2756 21.0842 19.9673L16.117 15.0001Z" fill="white"/>
</svg>
