<svg width="107" height="119" viewBox="0 0 107 119" fill="none" xmlns="http://www.w3.org/2000/svg">
<path d="M92.5335 108.029C91.5624 108.029 90.7754 107.242 90.7754 106.271V100.895C90.7754 99.9241 91.5627 99.1371 92.5335 99.1371C93.5043 99.1371 94.2916 99.9244 94.2916 100.895V106.271C94.2916 107.242 93.5045 108.029 92.5335 108.029Z" fill="#497090"/>
<path d="M95.7214 99.8984L93.7216 101.995C93.075 102.673 91.9935 102.673 91.3469 101.995L89.3471 99.8984C89.0559 99.5931 88.8936 99.1875 88.8936 98.7657V89.9215H96.1752V98.7657C96.1752 99.1875 96.0127 99.5931 95.7214 99.8984Z" fill="#5680A6"/>
<path d="M96.3343 92.2658H88.7337C87.8275 92.2658 87.0928 91.5311 87.0928 90.6249V66.7801L89.5362 64.4358H95.5138L97.9753 66.7801V90.6249C97.9753 91.5311 97.2408 92.2658 96.3343 92.2658Z" fill="#99E6FC"/>
<path d="M91.7821 64.4354V92.2657H88.7347C87.8284 92.2657 87.0938 91.531 87.0938 90.6247V66.7797L89.302 64.4354H91.7821Z" fill="#62DBFB"/>
<path d="M96.1636 25.4122H88.9043V17.423C88.9043 16.5315 89.627 15.8088 90.5185 15.8088H94.5492C95.4407 15.8088 96.1634 16.5315 96.1634 17.423V25.4122H96.1636Z" fill="#0EBE7F"/>
<path d="M97.9755 66.7801H87.0928V24.6823C87.0928 23.7908 87.8155 23.0681 88.707 23.0681H96.3613C97.2528 23.0681 97.9755 23.7908 97.9755 24.6823V66.7801Z" fill="#5680A6"/>
<path d="M91.7821 23.0675V66.7797H87.0938V24.7082C87.0938 23.802 87.8284 23.0673 88.7347 23.0673H91.7821V23.0675Z" fill="#497090"/>
<path d="M105.242 53.9751C104.271 53.9751 103.484 53.1878 103.484 52.217V32.1303H87.0931C86.122 32.1303 85.335 31.3431 85.335 30.3722C85.335 29.4014 86.1222 28.6141 87.0931 28.6141H105.242C106.213 28.6141 107 29.4014 107 30.3722V52.217C107 53.1881 106.213 53.9751 105.242 53.9751Z" fill="#99E6FC"/>
<path d="M81.17 8.9925V116.453C81.17 117.345 80.4473 118.067 79.5558 118.067H1.6142C0.722702 118.067 0 117.345 0 116.453V8.9925C0 8.101 0.722702 7.3783 1.6142 7.3783H14.9973L19.7498 9.6843H61.4204L66.1729 7.3783H79.556C80.4473 7.3783 81.17 8.101 81.17 8.9925Z" fill="#FED2A4"/>
<path d="M66.1736 7.3783V14.7591H14.998V7.3783H19.7505L22.0226 9.6843H58.9187L61.4212 7.3783H66.1736Z" fill="#FFBD86"/>
<path d="M73.7906 16.3734V109.075C73.7906 109.966 73.0679 110.689 72.1764 110.689H8.99213C8.10063 110.689 7.37793 109.966 7.37793 109.075V16.3734C7.37793 15.4819 8.10063 14.7592 8.99213 14.7592H72.1764C73.0679 14.7592 73.7906 15.4819 73.7906 16.3734Z" fill="#F2FBFF"/>
<path d="M66.1736 14.7592V21.5736C66.1736 22.4651 65.4509 23.1878 64.5594 23.1878H16.6123C15.7207 23.1878 14.998 22.4651 14.998 21.5736V14.7592H66.1736Z" fill="#DFF6FD"/>
<path d="M4.75129 7.3783V118.067H1.6142C0.722702 118.067 0 117.345 0 116.453V8.9925C0 8.101 0.722702 7.3783 1.6142 7.3783H4.75129Z" fill="#FFBD86"/>
<path d="M12.1292 14.7592V110.689H8.99213C8.10063 110.689 7.37793 109.966 7.37793 109.075V16.3734C7.37793 15.4819 8.10063 14.7592 8.99213 14.7592H12.1292Z" fill="#DFF6FD"/>
<path d="M47.9647 7.37922C47.9647 3.30381 44.6609 0 40.5854 0C36.51 0 33.2062 3.30381 33.2062 7.37922H19.75V16.8223C19.75 17.7138 20.4727 18.4365 21.3642 18.4365H59.8065C60.698 18.4365 61.4207 17.7138 61.4207 16.8223V7.60982V7.37922H47.9647Z" fill="#62DBFB"/>
<path d="M41.9149 6.00739C42.6494 6.74185 42.6494 7.9329 41.9149 8.66737C41.1805 9.40183 39.9894 9.40183 39.2549 8.66737C38.5205 7.9329 38.5205 6.74185 39.2549 6.00739C39.9896 5.27293 41.1805 5.27293 41.9149 6.00739Z" fill="#5680A6"/>
<path d="M60.9051 75.0818H37.0986C36.1435 75.0818 35.3691 74.3075 35.3691 73.3523C35.3691 72.3972 36.1435 71.6228 37.0986 71.6228H60.9049C61.8601 71.6228 62.6344 72.3972 62.6344 73.3523C62.6344 74.3075 61.8603 75.0818 60.9051 75.0818Z" fill="#5680A6"/>
<path d="M60.9051 82.245H37.0986C36.1435 82.245 35.3691 81.4707 35.3691 80.5155C35.3691 79.5604 36.1435 78.786 37.0986 78.786H60.9049C61.8601 78.786 62.6344 79.5604 62.6344 80.5155C62.6344 81.4707 61.8603 82.245 60.9051 82.245Z" fill="#5680A6"/>
<path d="M60.9051 89.4079H37.0986C36.1435 89.4079 35.3691 88.6335 35.3691 87.6784C35.3691 86.7232 36.1435 85.9489 37.0986 85.9489H60.9049C61.8601 85.9489 62.6344 86.7232 62.6344 87.6784C62.6344 88.6335 61.8603 89.4079 60.9051 89.4079Z" fill="#5680A6"/>
<path d="M29.9341 75.0819H19.1895C18.2343 75.0819 17.46 74.3076 17.46 73.3524C17.46 72.3973 18.2343 71.6229 19.1895 71.6229H29.9341C30.8892 71.6229 31.6636 72.3973 31.6636 73.3524C31.6636 74.3076 30.8892 75.0819 29.9341 75.0819Z" fill="#5680A6"/>
<path d="M29.935 82.245H19.1904C18.2353 82.245 17.4609 81.4707 17.4609 80.5155C17.4609 79.5604 18.2353 78.786 19.1904 78.786H29.935C30.8902 78.786 31.6645 79.5604 31.6645 80.5155C31.6645 81.4707 30.8902 82.245 29.935 82.245Z" fill="#5680A6"/>
<path d="M29.935 89.4079H19.1904C18.2353 89.4079 17.4609 88.6335 17.4609 87.6784C17.4609 86.7232 18.2353 85.9489 19.1904 85.9489H29.935C30.8902 85.9489 31.6645 86.7232 31.6645 87.6784C31.6645 88.6335 30.8902 89.4079 29.935 89.4079Z" fill="#5680A6"/>
<path d="M60.5291 100.037H47.0459C46.0908 100.037 45.3164 99.2627 45.3164 98.3075C45.3164 97.3524 46.0908 96.578 47.0459 96.578H60.5291C61.4843 96.578 62.2586 97.3524 62.2586 98.3075C62.2586 99.2627 61.4843 100.037 60.5291 100.037Z" fill="#5680A6"/>
<path d="M40.6773 62.6006C50.5653 62.6006 58.5811 54.5848 58.5811 44.6968C58.5811 34.8088 50.5653 26.793 40.6773 26.793C30.7893 26.793 22.7734 34.8088 22.7734 44.6968C22.7734 54.5848 30.7893 62.6006 40.6773 62.6006Z" fill="#0EBE7F"/>
<path d="M49.8091 41.1188H45.8746C44.9831 41.1188 44.2604 40.3961 44.2604 39.5046V35.5701C44.2604 34.6786 43.5377 33.9559 42.6462 33.9559H38.7117C37.8202 33.9559 37.0975 34.6786 37.0975 35.5701V39.5046C37.0975 40.3961 36.3748 41.1188 35.4833 41.1188H31.5488C30.6573 41.1188 29.9346 41.8415 29.9346 42.733V46.6676C29.9346 47.5591 30.6573 48.2818 31.5488 48.2818H35.4833C36.3748 48.2818 37.0975 49.0045 37.0975 49.896V53.8305C37.0975 54.722 37.8202 55.4447 38.7117 55.4447H42.6462C43.5377 55.4447 44.2604 54.722 44.2604 53.8305V49.896C44.2604 49.0045 44.9831 48.2818 45.8746 48.2818H49.8091C50.7006 48.2818 51.4233 47.5591 51.4233 46.6676V42.733C51.4233 41.8415 50.7006 41.1188 49.8091 41.1188Z" fill="#F2FBFF"/>
</svg>
