<svg width="17" height="22" viewBox="0 0 17 22" fill="none" xmlns="http://www.w3.org/2000/svg">
<path d="M12.5127 0.377686V4.29699H16.432L12.5127 0.377686Z" fill="white"/>
<path d="M9.75635 8.25H7.10303C6.60081 9.12669 5.75278 9.7246 4.77734 9.90872V13.0023C4.77734 15.3336 6.23704 17.3586 8.42969 18.1009C10.6223 17.3586 12.082 15.3336 12.082 13.0023V9.90872C11.1066 9.7246 10.2586 9.12665 9.75635 8.25ZM10.7084 12.4318L8.27779 14.8625C8.15194 14.9883 7.98698 15.0513 7.82207 15.0513C7.65715 15.0513 7.49215 14.9884 7.36634 14.8625L6.15101 13.6471C5.8993 13.3954 5.8993 12.9873 6.15101 12.7356C6.40268 12.4839 6.8108 12.4839 7.06251 12.7356L7.82211 13.4952L9.79704 11.5203C10.0487 11.2686 10.4568 11.2686 10.7085 11.5203C10.9602 11.772 10.9602 12.1801 10.7084 12.4318Z" fill="white"/>
<path d="M11.8672 5.58594C11.5112 5.58594 11.2227 5.29736 11.2227 4.94141V0H2.41406C1.11095 0 0.0507812 1.06017 0.0507812 2.36328V19.6367C0.0507812 20.9398 1.11095 22 2.41406 22H14.4453C15.7484 22 16.8086 20.9398 16.8086 19.6367V5.58594H11.8672ZM13.3711 13.0022C13.3711 14.4483 12.9148 15.8259 12.0516 16.9861C11.1884 18.1463 9.99998 18.9792 8.61488 19.3947C8.55447 19.4128 8.49208 19.4219 8.42969 19.4219C8.3673 19.4219 8.30491 19.4128 8.24449 19.3947C6.85939 18.9792 5.67096 18.1463 4.80777 16.9861C3.94457 15.8259 3.48828 14.4483 3.48828 13.0022V9.32422C3.48828 8.96827 3.77686 8.67969 4.13281 8.67969C4.94729 8.67969 5.67952 8.22714 6.04372 7.49869L6.13443 7.31728C6.24361 7.09887 6.46679 6.96094 6.71094 6.96094H10.1484C10.3926 6.96094 10.6158 7.09887 10.7249 7.31723L10.8157 7.49869C11.1799 8.22714 11.9121 8.67969 12.7266 8.67969C13.0825 8.67969 13.3711 8.96827 13.3711 9.32422V13.0022Z" fill="white"/>
</svg>
